<!-- LIST ICONS 
    users
    groups
    logout
    calendar
    no-data
    family
    user-role
 -->

<svg xmlns="http://www.w3.org/2000/svg">

    <symbol id="user_role" viewBox="0 0 52 52">
        <path
            d="M38.3,27.2A11.4,11.4,0,1,0,49.7,38.6,11.46,11.46,0,0,0,38.3,27.2Zm2,12.4a2.39,2.39,0,0,1-.9-.2l-4.3,4.3a1.39,1.39,0,0,1-.9.4,1,1,0,0,1-.9-.4,1.39,1.39,0,0,1,0-1.9l4.3-4.3a2.92,2.92,0,0,1-.2-.9,3.47,3.47,0,0,1,3.4-3.8,2.39,2.39,0,0,1,.9.2c.2,0,.2.2.1.3l-2,1.9a.28.28,0,0,0,0,.5L41.1,37a.38.38,0,0,0,.6,0l1.9-1.9c.1-.1.4-.1.4.1a3.71,3.71,0,0,1,.2.9A3.57,3.57,0,0,1,40.3,39.6Z" />
        <circle cx="21.7" cy="14.9" r="12.9" />
        <path
            d="M25.2,49.8c2.2,0,1-1.5,1-1.5h0a15.44,15.44,0,0,1-3.4-9.7,15,15,0,0,1,1.4-6.4.77.77,0,0,1,.2-.3c.7-1.4-.7-1.5-.7-1.5h0a12.1,12.1,0,0,0-1.9-.1A19.69,19.69,0,0,0,2.4,47.1c0,1,.3,2.8,3.4,2.8H24.9C25.1,49.8,25.1,49.8,25.2,49.8Z" />

    </symbol>

    <symbol id="family" viewBox="0 0 512 512">
        <g>
            <path class="st0"
                d="M78.641,118.933c22.88,0,41.416-18.551,41.416-41.414c0-22.887-18.536-41.423-41.416-41.423
                c-22.887,0-41.422,18.536-41.422,41.423C37.218,100.382,55.754,118.933,78.641,118.933z" />
            <path class="st0"
                d="M255.706,228.73v0.062c0.101,0,0.194-0.031,0.294-0.031c0.101,0,0.194,0.031,0.294,0.031v-0.062
                c15.562-0.317,28.082-12.976,28.082-28.601c0-15.648-12.52-28.299-28.082-28.616v-0.063c-0.101,0-0.194,0.031-0.294,0.031
                c-0.1,0-0.193-0.031-0.294-0.031v0.063c-15.563,0.317-28.082,12.968-28.082,28.616C227.623,215.754,240.143,228.413,255.706,228.73
                z" />
            <path class="st0"
                d="M433.359,118.933c22.887,0,41.423-18.551,41.423-41.414c0-22.887-18.536-41.423-41.423-41.423
                c-22.88,0-41.416,18.536-41.416,41.423C391.944,100.382,410.48,118.933,433.359,118.933z" />
            <path class="st0"
                d="M470.097,138.553h-36.312h-18.404c-21.106,0-40.432,11.831-50.033,30.622l-33.494,97.967
                c-1.154,2.246-3.298,3.84-5.792,4.282c-2.493,0.442-5.048-0.309-6.914-2.036l-20.836-18.04c-6.233-5.769-14.408-8.973-22.902-8.973
                H256h-19.41c-8.494,0-16.669,3.204-22.902,8.973l-20.835,18.04c-1.866,1.727-4.421,2.478-6.914,2.036
                c-2.492-0.442-4.637-2.036-5.791-4.282l-33.495-97.967c-9.6-18.791-28.926-30.622-50.032-30.622H78.215H41.902
                C21.834,138.553,0,160.387,0,180.464v139.211c0,10.034,8.13,18.171,18.164,18.171c4.939,0,0,0,12.682,0l6.906,118.725
                c0,10.676,8.664,19.332,19.34,19.332c4.506,0,12.814,0,21.122,0c8.308,0,16.616,0,21.122,0c10.676,0,19.34-8.656,19.34-19.332
                l6.906-118.725l-0.085-84.766c0-1.339,0.914-2.493,2.222-2.818c1.309-0.31,2.648,0.309,3.26,1.502l26.572,65.401
                c3.206,6.256,9.152,10.654,16.074,11.885c6.922,1.231,14.022-0.844,19.186-5.613l25.426-18.729
                c0.852-0.782,2.083-0.984,3.136-0.542c1.061,0.473,1.743,1.518,1.743,2.663l0.093,73.508l4.777,82.187
                c0,7.387,6.001,13.379,13.395,13.379c3.113,0,8.865,0,14.618,0c5.753,0,11.506,0,14.618,0c7.394,0,13.394-5.992,13.394-13.379
                l4.778-82.187l0.093-73.508c0-1.146,0.681-2.19,1.742-2.663c1.053-0.442,2.284-0.24,3.136,0.542l25.427,18.729
                c5.164,4.769,12.264,6.844,19.186,5.613c6.922-1.231,12.868-5.629,16.073-11.885l26.573-65.401
                c0.611-1.192,1.951-1.812,3.259-1.502c1.309,0.325,2.222,1.478,2.222,2.818l-0.085,84.766l6.906,118.725
                c0,10.676,8.664,19.332,19.341,19.332c4.507,0,12.814,0,21.122,0c8.308,0,16.616,0,21.121,0c10.677,0,19.342-8.656,19.342-19.332
                l6.906-118.725c12.682,0,7.742,0,12.682,0c10.034,0,18.164-8.137,18.164-18.171V180.464
                C512,160.387,490.166,138.553,470.097,138.553z" />
        </g>
    </symbol>

    <symbol id="no-data" viewBox="0 0 647.63626 632.17383">
        <path
            d="M687.3279,276.08691H512.81813a15.01828,15.01828,0,0,0-15,15v387.85l-2,.61005-42.81006,13.11a8.00676,8.00676,0,0,1-9.98974-5.31L315.678,271.39691a8.00313,8.00313,0,0,1,5.31006-9.99l65.97022-20.2,191.25-58.54,65.96972-20.2a7.98927,7.98927,0,0,1,9.99024,5.3l32.5498,106.32Z"
            transform="translate(-276.18187 -133.91309)" fill="#f2f2f2" />
        <path
            d="M725.408,274.08691l-39.23-128.14a16.99368,16.99368,0,0,0-21.23-11.28l-92.75,28.39L380.95827,221.60693l-92.75,28.4a17.0152,17.0152,0,0,0-11.28028,21.23l134.08008,437.93a17.02661,17.02661,0,0,0,16.26026,12.03,16.78926,16.78926,0,0,0,4.96972-.75l63.58008-19.46,2-.62v-2.09l-2,.61-64.16992,19.65a15.01489,15.01489,0,0,1-18.73-9.95l-134.06983-437.94a14.97935,14.97935,0,0,1,9.94971-18.73l92.75-28.4,191.24024-58.54,92.75-28.4a15.15551,15.15551,0,0,1,4.40966-.66,15.01461,15.01461,0,0,1,14.32032,10.61l39.0498,127.56.62012,2h2.08008Z"
            transform="translate(-276.18187 -133.91309)" fill="#3f3d56" />
        <path
            d="M398.86279,261.73389a9.0157,9.0157,0,0,1-8.61133-6.3667l-12.88037-42.07178a8.99884,8.99884,0,0,1,5.9712-11.24023l175.939-53.86377a9.00867,9.00867,0,0,1,11.24072,5.9707l12.88037,42.07227a9.01029,9.01029,0,0,1-5.9707,11.24072L401.49219,261.33887A8.976,8.976,0,0,1,398.86279,261.73389Z"
            transform="translate(-276.18187 -133.91309)" fill="#100e50" />
        <circle cx="190.15351" cy="24.95465" r="20" fill="#100e50" />
        <circle cx="190.15351" cy="24.95465" r="12.66462" fill="#fff" />
        <path
            d="M878.81836,716.08691h-338a8.50981,8.50981,0,0,1-8.5-8.5v-405a8.50951,8.50951,0,0,1,8.5-8.5h338a8.50982,8.50982,0,0,1,8.5,8.5v405A8.51013,8.51013,0,0,1,878.81836,716.08691Z"
            transform="translate(-276.18187 -133.91309)" fill="#e6e6e6" />
        <path
            d="M723.31813,274.08691h-210.5a17.02411,17.02411,0,0,0-17,17v407.8l2-.61v-407.19a15.01828,15.01828,0,0,1,15-15H723.93825Zm183.5,0h-394a17.02411,17.02411,0,0,0-17,17v458a17.0241,17.0241,0,0,0,17,17h394a17.0241,17.0241,0,0,0,17-17v-458A17.02411,17.02411,0,0,0,906.81813,274.08691Zm15,475a15.01828,15.01828,0,0,1-15,15h-394a15.01828,15.01828,0,0,1-15-15v-458a15.01828,15.01828,0,0,1,15-15h394a15.01828,15.01828,0,0,1,15,15Z"
            transform="translate(-276.18187 -133.91309)" fill="#3f3d56" />
        <path
            d="M801.81836,318.08691h-184a9.01015,9.01015,0,0,1-9-9v-44a9.01016,9.01016,0,0,1,9-9h184a9.01016,9.01016,0,0,1,9,9v44A9.01015,9.01015,0,0,1,801.81836,318.08691Z"
            transform="translate(-276.18187 -133.91309)" fill="#100e50" />
        <circle cx="433.63626" cy="105.17383" r="20" fill="#100e50" />
        <circle cx="433.63626" cy="105.17383" r="12.18187" fill="#fff" />
    </symbol>

    <symbol id="calendar" viewBox="0 0 24 24">
        <path
            d="M2 12C2 8.22876 2 6.34315 3.17157 5.17157C4.34315 4 6.22876 4 10 4H14C17.7712 4 19.6569 4 20.8284 5.17157C22 6.34315 22 8.22876 22 12V14C22 17.7712 22 19.6569 20.8284 20.8284C19.6569 22 17.7712 22 14 22H10C6.22876 22 4.34315 22 3.17157 20.8284C2 19.6569 2 17.7712 2 14V12Z"
            stroke="#1C274C" stroke-width="1.5" />
        <path d="M7 4V2.5" stroke="#1C274C" stroke-width="1.5" stroke-linecap="round" />
        <path d="M17 4V2.5" stroke="#1C274C" stroke-width="1.5" stroke-linecap="round" />
        <path d="M2.5 9H21.5" stroke="#1C274C" stroke-width="1.5" stroke-linecap="round" />
        <path
            d="M18 17C18 17.5523 17.5523 18 17 18C16.4477 18 16 17.5523 16 17C16 16.4477 16.4477 16 17 16C17.5523 16 18 16.4477 18 17Z"
            fill="#1C274C" />
        <path
            d="M18 13C18 13.5523 17.5523 14 17 14C16.4477 14 16 13.5523 16 13C16 12.4477 16.4477 12 17 12C17.5523 12 18 12.4477 18 13Z"
            fill="#1C274C" />
        <path
            d="M13 17C13 17.5523 12.5523 18 12 18C11.4477 18 11 17.5523 11 17C11 16.4477 11.4477 16 12 16C12.5523 16 13 16.4477 13 17Z"
            fill="#1C274C" />
        <path
            d="M13 13C13 13.5523 12.5523 14 12 14C11.4477 14 11 13.5523 11 13C11 12.4477 11.4477 12 12 12C12.5523 12 13 12.4477 13 13Z"
            fill="#1C274C" />
        <path
            d="M8 17C8 17.5523 7.55228 18 7 18C6.44772 18 6 17.5523 6 17C6 16.4477 6.44772 16 7 16C7.55228 16 8 16.4477 8 17Z"
            fill="#1C274C" />
        <path
            d="M8 13C8 13.5523 7.55228 14 7 14C6.44772 14 6 13.5523 6 13C6 12.4477 6.44772 12 7 12C7.55228 12 8 12.4477 8 13Z"
            fill="#1C274C" />
    </symbol>

    <symbol id="logout" viewBox="0 0 1024 1024">
        <path
            d="M868 732h-70.3c-4.8 0-9.3 2.1-12.3 5.8-7 8.5-14.5 16.7-22.4 24.5a353.84 353.84 0 0 1-112.7 75.9A352.8 352.8 0 0 1 512.4 866c-47.9 0-94.3-9.4-137.9-27.8a353.84 353.84 0 0 1-112.7-75.9 353.28 353.28 0 0 1-76-112.5C167.3 606.2 158 559.9 158 512s9.4-94.2 27.8-137.8c17.8-42.1 43.4-80 76-112.5s70.5-58.1 112.7-75.9c43.6-18.4 90-27.8 137.9-27.8 47.9 0 94.3 9.3 137.9 27.8 42.2 17.8 80.1 43.4 112.7 75.9 7.9 7.9 15.3 16.1 22.4 24.5 3 3.7 7.6 5.8 12.3 5.8H868c6.3 0 10.2-7 6.7-12.3C798 160.5 663.8 81.6 511.3 82 271.7 82.6 79.6 277.1 82 516.4 84.4 751.9 276.2 942 512.4 942c152.1 0 285.7-78.8 362.3-197.7 3.4-5.3-.4-12.3-6.7-12.3zm88.9-226.3L815 393.7c-5.3-4.2-13-.4-13 6.3v76H488c-4.4 0-8 3.6-8 8v56c0 4.4 3.6 8 8 8h314v76c0 6.7 7.8 10.5 13 6.3l141.9-112a8 8 0 0 0 0-12.6z" />
    </symbol>

    <symbol id="users" viewBox="0 0 24 24">
        <rect width="24" height="24" fill="transparent" />
        <path fill-rule="evenodd" clip-rule="evenodd"
            d="M5 9.5C5 7.01472 7.01472 5 9.5 5C11.9853 5 14 7.01472 14 9.5C14 11.9853 11.9853 14 9.5 14C7.01472 14 5 11.9853 5 9.5Z" />
        <path
            d="M14.3675 12.0632C14.322 12.1494 14.3413 12.2569 14.4196 12.3149C15.0012 12.7454 15.7209 13 16.5 13C18.433 13 20 11.433 20 9.5C20 7.567 18.433 6 16.5 6C15.7209 6 15.0012 6.2546 14.4196 6.68513C14.3413 6.74313 14.322 6.85058 14.3675 6.93679C14.7714 7.70219 15 8.5744 15 9.5C15 10.4256 14.7714 11.2978 14.3675 12.0632Z" />
        <path fill-rule="evenodd" clip-rule="evenodd"
            d="M4.64115 15.6993C5.87351 15.1644 7.49045 15 9.49995 15C11.5112 15 13.1293 15.1647 14.3621 15.7008C15.705 16.2847 16.5212 17.2793 16.949 18.6836C17.1495 19.3418 16.6551 20 15.9738 20H3.02801C2.34589 20 1.85045 19.3408 2.05157 18.6814C2.47994 17.2769 3.29738 16.2826 4.64115 15.6993Z" />
        <path
            d="M14.8185 14.0364C14.4045 14.0621 14.3802 14.6183 14.7606 14.7837V14.7837C15.803 15.237 16.5879 15.9043 17.1508 16.756C17.6127 17.4549 18.33 18 19.1677 18H20.9483C21.6555 18 22.1715 17.2973 21.9227 16.6108C21.9084 16.5713 21.8935 16.5321 21.8781 16.4932C21.5357 15.6286 20.9488 14.9921 20.0798 14.5864C19.2639 14.2055 18.2425 14.0483 17.0392 14.0008L17.0194 14H16.9997C16.2909 14 15.5506 13.9909 14.8185 14.0364Z" />
    </symbol>

    <symbol id="groups" viewBox="0 0 493.079 493.079">
        <g>
            <g>
                <g>
                    <path
                        d="M111.781,235.411l18.751,18.751H78.754c0-23.873,17.417-32.868,41.021-35.184l-10.566,10.579
                        h8.422L111.781,235.411z M155.439,180.873c-0.745,10.501-5.235,22.765-11.645,29.347h24.841v-27.744
                        c0-28.997-15.341-40.023-34.232-40.023c-18.91,0-34.264,11.026-34.264,40.023v27.744h24.841
                        c-6.203-6.362-10.628-18.068-11.612-28.317l0.269-0.016c10.725,0,19.957-4.441,25.032-10.978
                        C142.366,175.717,148.316,179.27,155.439,180.873z M288.054,88.485l4.331-4.347h-6.281l7.868-7.852
                        c-17.56,1.713-30.49,8.393-30.49,26.143h38.452L288.054,88.485z M289.227,48.717l0.191-0.016c7.933,0,14.816-3.301,18.593-8.153
                        c2.76,3.57,7.185,6.219,12.484,7.408c-0.554,7.803-3.903,16.912-8.678,21.813h18.496V49.145c0-21.544-11.438-29.742-25.46-29.742
                        c-14.071,0-25.46,8.202-25.46,29.742v20.621h18.464C293.224,65.04,289.943,56.33,289.227,48.717z M323.54,84.122h-6.265
                        l4.331,4.347l-13.912,13.928h38.485c0-17.751-12.912-24.43-30.49-26.143L323.54,84.122z M148.996,218.976l10.566,10.579h-8.422
                        l5.853,5.869l-18.751,18.751h51.778C190.02,230.303,172.6,221.308,148.996,218.976z M348.605,391.949l14.071,14.071h-11.214
                        l7.774,7.774l-24.906,24.938h68.846C403.159,406.972,380.044,395.01,348.605,391.949z M447.987,374.262
                        c0,65.532-53.285,118.817-118.817,118.817c-65.5,0-118.833-53.285-118.833-118.817c0-26.063,8.551-50.097,22.811-69.688
                        l-39.214-31.728l2.316-2.87c-16.102,15.483-37.882,25.032-61.82,25.032c-49.253,0-89.338-40.072-89.338-89.327
                        s40.056-89.311,89.343-89.311c22.033,0,42.181,8.059,57.79,21.353c13.912-10.485,45.148-33.931,54.681-39.625
                        c-5.173-9.471-8.422-20.161-8.422-31.712C238.482,29.775,268.257,0,304.885,0c36.596,0,66.371,29.775,66.371,66.387
                        c0,36.596-29.775,66.371-66.371,66.371c-22.273,0-41.896-11.104-53.92-27.951c-5.329,2.983-29.775,20.909-52.857,38.358
                        c15.83,16.118,25.619,38.2,25.619,62.516c0,21.845-7.9,41.863-20.955,57.408l38.705,31.313
                        c21.764-23.86,52.951-38.961,87.724-38.961C394.702,255.462,447.987,308.763,447.987,374.262z M304.853,125.463
                        c32.567,0,59.06-26.49,59.06-59.044c0-32.567-26.49-59.044-59.06-59.044s-59.06,26.477-59.06,59.044
                        C245.796,98.97,272.286,125.463,304.853,125.463z M213.845,205.698c0-43.813-35.628-79.46-79.444-79.46
                        c-43.862,0-79.49,35.644-79.49,79.46s35.628,79.46,79.49,79.46C178.217,285.175,213.845,249.528,213.845,205.698z
                         M434.884,374.262c0-58.283-47.431-105.714-105.714-105.714S223.472,315.98,223.472,374.262
                        c0,58.299,47.415,105.714,105.698,105.714S434.884,432.575,434.884,374.262z M306.932,406.02h-11.214l14.071-14.071
                        c-31.44,3.061-54.587,15.023-54.587,46.78h68.91l-24.938-24.938L306.932,406.02z M357.218,341.265
                        c-1.014,13.977-6.964,30.267-15.529,39.023h33.059v-36.914c0-38.579-20.384-53.22-45.575-53.22
                        c-25.159,0-45.575,14.657-45.575,53.22v36.914h33.091c-8.263-8.471-14.165-24.032-15.467-37.675l0.317-0.048
                        c14.246,0,26.555-5.886,33.312-14.563C339.768,334.349,347.701,339.124,357.218,341.265z" />
                </g>
            </g>
        </g>
    </symbol>

    <symbol id="pug" viewBox="0 0 32 32">

        <g id="SVGRepo_bgCarrier" stroke-width="0"></g>
        <g id="SVGRepo_tracerCarrier" stroke-linecap="round" stroke-linejoin="round"
            stroke="#CCCCCC" stroke-width="0.064"></g>
        <g id="SVGRepo_iconCarrier">
            <title>file_type_pug</title>
            <path
                d="M25.514,12.846c-.052-.938.209-1.825-.209-2.554-1.043-1.825-3.649-2.867-8.863-2.867V7.372h0v.052c-5.735,0-8.185,1.043-9.227,2.867a5.6,5.6,0,0,0-.469,2.554,9.546,9.546,0,0,0-.261,2.45c.156,1.147.261,2.294.417,3.336.156.886,1.408,1.564,1.564,2.4.313,2.242,2.294,3.284,8.028,3.284v.261h-.1v-.261c5.213,0,7.4-1.043,7.716-3.284.1-.834,1.147-1.512,1.3-2.4.156-1.043.209-2.19.365-3.336A11.774,11.774,0,0,0,25.514,12.846Z"
                style="fill:#efcca3"></path>
            <path
                d="M16.182,13.68a3.241,3.241,0,0,1,2.19,1.147c.73.626,1.929,1.043,2.45,1.616a4.715,4.715,0,0,1,1.408,1.981,8.9,8.9,0,0,1,.313,2.242c0,.261.156.209.573,0a9.02,9.02,0,0,0,2.19-1.877c-.156.886-1.251,1.668-1.355,2.5-.313,2.242-2.5,3.336-7.872,3.336h.313"
                style="fill:#ccac8d"></path>
            <path
                d="M19.519,11.908c.209.678.886,3.024-.469,2.242a2.557,2.557,0,0,1,.938,1.564,1.831,1.831,0,0,0,1.3,1.408,3.479,3.479,0,0,0,2.554-.626,2.956,2.956,0,0,0,.678-3.284,2.43,2.43,0,0,0-2.137-1.616C21.4,11.334,19.31,11.126,19.519,11.908Z"
                style="fill:#ccac8d"></path>
            <circle cx="22.178" cy="14.41" r="1.929"></circle>
            <circle cx="21.656" cy="13.524" r="0.521" style="fill:#fff"></circle>
            <path
                d="M19.206,14.306a17.68,17.68,0,0,1,2.711,2.346c.938,1.2.938,1.408.938,1.408l-.678.313a7.1,7.1,0,0,0-2.137-2.5c-1.2-.678-1.355-1.251-1.355-1.251Z"
                style="fill:#efcca3"></path>
            <path
                d="M16.235,13.68a3.605,3.605,0,0,0-2.346,1.147c-.73.626-2.033,1.043-2.5,1.616a4.806,4.806,0,0,0-1.46,1.981,8.9,8.9,0,0,0-.313,2.242c0,.261.052.313-.626,0A7.972,7.972,0,0,1,6.8,18.789c.156.886,1.251,1.668,1.355,2.5.313,2.19,2.5,3.284,7.872,3.284h.365"
                style="fill:#ccac8d"></path>
            <path
                d="M21.239,17.277a6.552,6.552,0,0,0-5.109-2.607h0a6.638,6.638,0,0,0-5.109,2.607,3.861,3.861,0,0,0-1.043,3.18c0,4.64,1.616,3.232,2.711,3.806a7.466,7.466,0,0,0,3.389.313h0a7.4,7.4,0,0,0,3.389-.313c1.095-.573,2.711.834,2.711-3.806A3.386,3.386,0,0,0,21.239,17.277Z"
                style="fill:#56332b"></path>
            <path d="M16.026,15.974a9.549,9.549,0,0,1-.469,2.554l.573-.156Z"
                style="fill:#442823"></path>
            <path d="M16.182,15.974a9.549,9.549,0,0,0,.469,2.554l-.573-.156Z"
                style="fill:#442823"></path>
            <path
                d="M14.358,15.453c-.209-.521.573-1.355,1.825-1.355s2.033.834,1.825,1.355-1.043.678-1.825.678C15.348,16.13,14.566,15.974,14.358,15.453Z"
                style="fill:#56332b"></path>
            <path
                d="M16.182,15.974c0-.1.73-.1,1.147-.365,0,0-.834.261-.991.156a.656.656,0,0,1-.209-.365.656.656,0,0,1-.209.365c-.156.1-1.095-.156-1.095-.156a8.058,8.058,0,0,1,1.2.365v.417a10.492,10.492,0,0,0,.1,2.033c.156.209.1-1.46.1-2.033A1.3,1.3,0,0,1,16.182,15.974Z"></path>
            <path
                d="M16.182,18.945a3.35,3.35,0,0,1,1.616.678,3.121,3.121,0,0,0-1.616-1.095,3.036,3.036,0,0,0-1.825,1.2A3.312,3.312,0,0,1,16.182,18.945Z"
                style="fill:#7f4a41"></path>
            <path
                d="M16.078,22.8a8.9,8.9,0,0,1-2.4-.469c-.156-.052-.313.052-.469,0a6.172,6.172,0,0,1-3.18-2.137v.209c0,4.64,1.616,3.232,2.711,3.806a7.466,7.466,0,0,0,3.389.313h0a7.4,7.4,0,0,0,3.389-.313c1.095-.573,2.711.834,2.711-3.806v-.469A5.914,5.914,0,0,1,19,22.282c-.156.052-.417-.052-.573-.052A7.045,7.045,0,0,1,16.078,22.8Z"
                style="fill:#442823"></path>
            <path
                d="M13.941,20.3s-.573,1.668-.156,2.4l-.521-.209A15.433,15.433,0,0,1,13.941,20.3Z"
                style="fill:#442823"></path>
            <path d="M18.32,20.3s.573,1.668.156,2.4L19,22.491A10.629,10.629,0,0,0,18.32,20.3Z"
                style="fill:#442823"></path>
            <path
                d="M12.585,11.908c-.209.678-.886,3.024.469,2.242a2.557,2.557,0,0,0-.938,1.564,1.831,1.831,0,0,1-1.3,1.408A3.479,3.479,0,0,1,8.258,16.5a2.956,2.956,0,0,1-.678-3.284,2.43,2.43,0,0,1,2.137-1.616C10.709,11.334,12.794,11.126,12.585,11.908Z"
                style="fill:#ccac8d"></path>
            <path
                d="M16.13,18.528a3.393,3.393,0,0,1,2.45,2.867v-.1a3.051,3.051,0,0,0-2.45-2.919,3,3,0,0,0-2.45,2.919v.1A3.463,3.463,0,0,1,16.13,18.528Z"></path>
            <ellipse cx="16.546" cy="15.138" rx="0.156" ry="0.313"
                transform="translate(-3.256 4.611) rotate(-14.46)" style="fill:#331712"></ellipse>
            <ellipse cx="15.609" cy="15.146" rx="0.313" ry="0.156"
                transform="translate(-3.482 25.567) rotate(-72.765)" style="fill:#331712"></ellipse>
            <circle cx="10.031" cy="14.41" r="1.929"></circle>
            <circle cx="10.552" cy="13.524" r="0.521" style="fill:#fff"></circle>
            <path d="M16.7,14.41s-.521.209-.626.261a2.492,2.492,0,0,1-.626-.261H16.7Z"
                style="fill:#7f4a41"></path>
            <path
                d="M12.9,14.306a17.68,17.68,0,0,0-2.711,2.346c-.938,1.2-.938,1.408-.938,1.408l.678.313a7.1,7.1,0,0,1,2.137-2.5c1.2-.678,1.355-1.251,1.355-1.251Z"
                style="fill:#efcca3"></path>
            <path d="M9.092,10.813a4.519,4.519,0,0,1-1.929,2.294A2.19,2.19,0,0,0,9.092,10.813Z"
                style="fill:#ccac8d"></path>
            <path
                d="M22.908,10.813a4.519,4.519,0,0,0,1.929,2.294A2.19,2.19,0,0,1,22.908,10.813Z"
                style="fill:#ccac8d"></path>
            <path
                d="M19.31,13.836a5.16,5.16,0,0,0-3.076-1.408h.156a3.852,3.852,0,0,0-3.024,1.408,4.832,4.832,0,0,1,3.024-1.043h0A5.785,5.785,0,0,1,19.31,13.836Z"
                style="fill:#ccac8d"></path>
            <path
                d="M17.746,10.969a2.455,2.455,0,0,0-1.564-.938h.156a1.786,1.786,0,0,0-1.512.938,2.187,2.187,0,0,1,1.512-.678h0A1.894,1.894,0,0,1,17.746,10.969Z"
                style="fill:#ccac8d"></path>
            <path
                d="M10.031,17.746a2.545,2.545,0,0,1-1.773.209H8.05a3.68,3.68,0,0,1-.886-1.512A2.27,2.27,0,0,0,10.031,17.746Z"
                style="fill:#ccac8d"></path>
            <path
                d="M22.126,17.746a2.545,2.545,0,0,0,1.773.209H23.69a1.749,1.749,0,0,0,1.095-1.512A2.02,2.02,0,0,1,22.126,17.746Z"
                style="fill:#ccac8d"></path>
            <path
                d="M11.23,10.709a4.75,4.75,0,0,1,2.242.1c.938.313.209,1.564.365,1.616a2.865,2.865,0,0,1,2.242-.73c1.773.1,1.981.886,2.242.73.261-.1-.261-2.19,2.45-1.72,0,0-2.763-.73-2.659,1.251a3.675,3.675,0,0,0-3.858-.1S14.827,9.927,11.23,10.709Z"
                style="fill:#ccac8d"></path>
            <path
                d="M10.5,8s-2.4,2.972-2.711,4.118c-.365,1.147-.626,5.943-.938,6.621L5.756,14.045l2.033-4.9Z"
                style="fill:#ccac8d"></path>
            <path
                d="M21.656,8s2.4,2.972,2.711,4.118c.365,1.147.626,5.943.938,6.621L26.4,14.045l-2.033-4.9Z"
                style="fill:#ccac8d"></path>
            <path
                d="M21.5,8a11.617,11.617,0,0,1,3.284,4.588c.73,2.45.417,5.474.991,5.839.834.521,1.72-2.607,2.033-2.919.469-.521,2.085-1.877,2.19-2.137s-3.232-3.91-4.744-4.64C23.585,7.893,21.4,7.789,21.5,8Z"
                style="fill:#56332b"></path>
            <path
                d="M23.69,9.3a15.379,15.379,0,0,1,2.972,8.654l1.2-2.45A16.564,16.564,0,0,0,23.69,9.3Z"
                style="fill:#442823"></path>
            <path
                d="M10.5,8a11.617,11.617,0,0,0-3.284,4.588c-.73,2.45-.417,5.474-.991,5.839-.834.521-1.72-2.607-2.033-2.919-.469-.521-2.085-1.877-2.19-2.137s3.232-3.91,4.744-4.64C8.415,7.893,10.6,7.789,10.5,8Z"
                style="fill:#56332b"></path>
            <path
                d="M8.31,9.3a15.379,15.379,0,0,0-2.972,8.654L4.14,15.5A16.564,16.564,0,0,1,8.31,9.3Z"
                style="fill:#442823"></path>
            <path
                d="M6.642,18.007a4.118,4.118,0,0,0,.573,1.564c.365.365.1-.313.1-.313s-.365-.209-.313-1.72S6.642,18.007,6.642,18.007Z"
                style="fill:#ccac8d"></path>
            <path
                d="M25.41,18.007a4.118,4.118,0,0,1-.573,1.564c-.365.365-.1-.313-.1-.313s.365-.209.313-1.72C24.993,16.078,25.41,18.007,25.41,18.007Z"
                style="fill:#ccac8d"></path>
            <circle cx="13.889" cy="17.121" r="0.156" style="fill:#442823"></circle>
            <circle cx="12.846" cy="18.216" r="0.156" style="fill:#442823"></circle>
            <circle cx="12.533" cy="17.121" r="0.156" style="fill:#442823"></circle>
            <circle cx="18.164" cy="17.121" r="0.156" style="fill:#442823"></circle>
            <circle cx="19.154" cy="18.216" r="0.156" style="fill:#442823"></circle>
            <circle cx="19.467" cy="17.121" r="0.156" style="fill:#442823"></circle>
        </g>

    </symbol>
</svg>